# xmcd
#
# Track frame offsets:
#	150
#	12864
#	32236
#	49249
#	52130
#	66314
#	76223
#	82951
#	96294
#	108014
#	123376
#	126800
#	139489
#	153931
#	167462
#
# Disc length: 2318 seconds
#
# Revision: 2
# Processed by: cddbd v1.5.2PL0 Copyright (c) Steve Scherf et al.
# Submitted via: audiograbber 1.83.01
#
DISCID=c3090c0f
DTITLE=Miss Kenichi - Collision Time
DYEAR=2005
DGENRE=Chanson
TTITLE0=Arrived
TTITLE1=Collision Time
TTITLE2=Black Bird
TTITLE3=Blue Eyed Stallion
TTITLE4=It Won't Come
TTITLE5=River
TTITLE6=Away
TTITLE7=Gunshop
TTITLE8=Hotel
TTITLE9=Ride On
TTITLE10=If Hate Could Heal
TTITLE11=Under My Skirt
TTITLE12=Flashlights
TTITLE13=Silver Lake
TTITLE14=Quiet Life
EXTD=
EXTT0=
EXTT1=
EXTT2=
EXTT3=
EXTT4=
EXTT5=
EXTT6=
EXTT7=
EXTT8=
EXTT9=
EXTT10=
EXTT11=
EXTT12=
EXTT13=
EXTT14=
PLAYORDER=
